<svg width="32" height="32" viewBox="0 0 32 32" xmlns="http://www.w3.org/2000/svg">
  <defs>
    <linearGradient id="bgGradient" x1="0%" y1="0%" x2="100%" y2="100%">
      <stop offset="0%" style="stop-color:#8B5CF6;stop-opacity:1" />
      <stop offset="100%" style="stop-color:#EC4899;stop-opacity:1" />
    </linearGradient>
  </defs>
  
  <rect width="32" height="32" rx="6" fill="url(#bgGradient)"/>
  <rect x="6" y="6" width="20" height="20" rx="4" fill="#FFFFFF" stroke="#E2E8F0" stroke-width="1"/>
  
  <g stroke="#8B5CF6" stroke-width="1" fill="none">
    <circle cx="8" cy="10" r="1"/>
    <circle cx="8" cy="12" r="1"/>
    <circle cx="8" cy="14" r="1"/>
    <circle cx="8" cy="16" r="1"/>
    <circle cx="8" cy="18" r="1"/>
    <circle cx="8" cy="20" r="1"/>
    <circle cx="8" cy="22" r="1"/>
  </g>
  
  <g stroke="#E2E8F0" stroke-width="0.5" fill="none">
    <line x1="12" y1="10" x2="22" y2="10"/>
    <line x1="12" y1="12" x2="22" y2="12"/>
    <line x1="12" y1="14" x2="22" y2="14"/>
    <line x1="12" y1="16" x2="22" y2="16"/>
    <line x1="12" y1="18" x2="22" y2="18"/>
    <line x1="12" y1="20" x2="22" y2="20"/>
    <line x1="12" y1="22" x2="22" y2="22"/>
  </g>
</svg>
