<svg width="180" height="180" viewBox="0 0 180 180" xmlns="http://www.w3.org/2000/svg">
  <defs>
    <linearGradient id="bgGradient" x1="0%" y1="0%" x2="100%" y2="100%">
      <stop offset="0%" style="stop-color:#8B5CF6;stop-opacity:1" />
      <stop offset="100%" style="stop-color:#EC4899;stop-opacity:1" />
    </linearGradient>
    <linearGradient id="bookGradient" x1="0%" y1="0%" x2="100%" y2="100%">
      <stop offset="0%" style="stop-color:#FFFFFF;stop-opacity:1" />
      <stop offset="100%" style="stop-color:#F8FAFC;stop-opacity:1" />
    </linearGradient>
  </defs>
  
  <rect width="180" height="180" rx="20" fill="url(#bgGradient)"/>
  <rect x="30" y="20" width="120" height="140" rx="8" fill="url(#bookGradient)" stroke="#E2E8F0" stroke-width="2"/>
  
  <g stroke="#8B5CF6" stroke-width="2" fill="none">
    <circle cx="40" cy="40" r="3"/>
    <circle cx="40" cy="50" r="3"/>
    <circle cx="40" cy="60" r="3"/>
    <circle cx="40" cy="70" r="3"/>
    <circle cx="40" cy="80" r="3"/>
    <circle cx="40" cy="90" r="3"/>
    <circle cx="40" cy="100" r="3"/>
    <circle cx="40" cy="110" r="3"/>
    <circle cx="40" cy="120" r="3"/>
    <circle cx="40" cy="130" r="3"/>
    <circle cx="40" cy="140" r="3"/>
  </g>
  
  <g stroke="#E2E8F0" stroke-width="1" fill="none">
    <line x1="55" y1="40" x2="135" y2="40"/>
    <line x1="55" y1="50" x2="135" y2="50"/>
    <line x1="55" y1="60" x2="135" y2="60"/>
    <line x1="55" y1="70" x2="135" y2="70"/>
    <line x1="55" y1="80" x2="135" y2="80"/>
    <line x1="55" y1="90" x2="135" y2="90"/>
    <line x1="55" y1="100" x2="135" y2="100"/>
    <line x1="55" y1="110" x2="135" y2="110"/>
    <line x1="55" y1="120" x2="135" y2="120"/>
    <line x1="55" y1="130" x2="135" y2="130"/>
    <line x1="55" y1="140" x2="135" y2="140"/>
  </g>
  
  <ellipse cx="90" cy="160" rx="50" ry="8" fill="#000000" opacity="0.1"/>
</svg>
